<?xml version="1.0" encoding="utf-8"?>
<!-- Generator: Adobe Illustrator 24.0.0, SVG Export Plug-In . SVG Version: 6.00 Build 0)  -->
<svg version="1.1" id="icon" xmlns="http://www.w3.org/2000/svg" xmlns:xlink="http://www.w3.org/1999/xlink" x="0px" y="0px"
	 viewBox="0 0 100 100" style="enable-background:new 0 0 100 100;" xml:space="preserve">
<g id="back">
	<linearGradient id="SVGID_1_" gradientUnits="userSpaceOnUse" x1="50" y1="92.5" x2="50" y2="7.5">
		<stop  offset="0.2658" style="stop-color:#0D031C"/>
		<stop  offset="0.3322" style="stop-color:#18181B"/>
		<stop  offset="0.7425" style="stop-color:#24094E"/>
		<stop  offset="0.8673" style="stop-color:#250950"/>
		<stop  offset="0.9122" style="stop-color:#280A57"/>
		<stop  offset="0.9442" style="stop-color:#2E0B62"/>
		<stop  offset="0.9701" style="stop-color:#360D73"/>
		<stop  offset="0.9921" style="stop-color:#400F89"/>
		<stop  offset="1" style="stop-color:#451093"/>
	</linearGradient>
	<path style="fill:url(#SVGID_1_);" d="M19.36,92.5c-6.54,0-11.86-5.32-11.86-11.86V19.36c0-6.54,5.32-11.86,11.86-11.86h61.28
		c6.54,0,11.86,5.32,11.86,11.86v61.28c0,6.54-5.32,11.86-11.86,11.86H19.36z"/>
	<path style="fill:#9147FF;" d="M80.64,9C86.36,9,91,13.64,91,19.36v61.28C91,86.36,86.36,91,80.64,91H19.36
		C13.64,91,9,86.36,9,80.64V19.36C9,13.64,13.64,9,19.36,9H80.64 M80.64,6H19.36C11.99,6,6,11.99,6,19.36v61.28
		C6,88.01,11.99,94,19.36,94h61.28C88.01,94,94,88.01,94,80.64V19.36C94,11.99,88.01,6,80.64,6L80.64,6z"/>
</g>
<g id="mountain">
	<linearGradient id="m8_1_" gradientUnits="userSpaceOnUse" x1="50" y1="87.1552" x2="50" y2="39.3564">
		<stop  offset="0.0581" style="stop-color:#15052E"/>
		<stop  offset="0.2424" style="stop-color:#100424"/>
		<stop  offset="0.6931" style="stop-color:#070210"/>
		<stop  offset="1" style="stop-color:#040109"/>
	</linearGradient>
	<path id="m8" style="fill:url(#m8_1_);" d="M91,61.86c-0.39-0.25-0.9-0.37-1.61-0.26c-5.67,0.94-7.5-1.17-12.19-3.91
		c-5.98-1.77-6.7-3.67-12.54-9.65c-4.11,0.16-2.96,0.54-7.83-3.48c-5.04,2.1-9.71,4.93-15.54,6.56c-4.52-1.49-4.42-2.91-8.28-7.25
		c-1.88-0.91-4.19-0.64-5.29-3.08c-0.97-0.63-1.72,2.07-3.49,3.1c-2.42-0.9-4.09-3.1-5.98-4.55c-4.06,1.51-5.08,7.82-9.24,7.44
		v32.76c0.4,0.18,0.81,0.36,1.23,0.51c3.72-0.09,5.25,1.69,8.38,2.81c29.65,6.74,14.97-4.53,29.14,3.29
		c2.63,0.74,4.55,1.17,7.55,0.91c13.52-5.47,10.43-3.7,22.72-5.58c4.5-2.14,8.4-3.4,12.99-4.16V61.86z"/>
	<linearGradient id="m7_1_" gradientUnits="userSpaceOnUse" x1="26.1973" y1="59.8685" x2="26.1973" y2="42.597">
		<stop  offset="0.0581" style="stop-color:#451093"/>
		<stop  offset="0.2424" style="stop-color:#400F89"/>
		<stop  offset="0.6931" style="stop-color:#360D75"/>
		<stop  offset="1" style="stop-color:#330C6E"/>
	</linearGradient>
	<path id="m7" style="fill:url(#m7_1_);" d="M27.59,43.5c-4.7,2.67-0.2,3.16-5.14,4.89c-4.72,3.27-2.46,5.09-10.3,2.35
		c1.53,2.27,3.19,6.56,6.89,5.82c0.95-0.09,0.55,1.42,1.86,1.83c1.3-0.46,3.59-0.51,4.23,1.48c2.82-7.17,2.96-0.7,15.12-7.79
		c-3.23-1.01-5.31-3.47-7.61-6.95c-1.8-0.8-3.96-0.95-5.22-2.53C27.41,42.9,27.44,43.2,27.59,43.5z"/>
	<linearGradient id="m6_1_" gradientUnits="userSpaceOnUse" x1="20.0712" y1="69.6536" x2="20.0712" y2="51.1083">
		<stop  offset="0.0581" style="stop-color:#451093"/>
		<stop  offset="0.2424" style="stop-color:#400F89"/>
		<stop  offset="0.6931" style="stop-color:#360D75"/>
		<stop  offset="1" style="stop-color:#330C6E"/>
	</linearGradient>
	<path id="m6" style="fill:url(#m6_1_);" d="M9,51.11v17.1c3.06,0.05,6.32,0.9,9.91,1.45c3.45-2.4,7.86-3.03,12.23-1.26
		C24.1,60.94,15.07,63.6,9,51.11z"/>
	<linearGradient id="m5_1_" gradientUnits="userSpaceOnUse" x1="11.6148" y1="73.5846" x2="11.6148" y2="68.2955">
		<stop  offset="0.0581" style="stop-color:#451093"/>
		<stop  offset="0.2424" style="stop-color:#400F89"/>
		<stop  offset="0.6931" style="stop-color:#360D75"/>
		<stop  offset="1" style="stop-color:#330C6E"/>
	</linearGradient>
	<path id="m5" style="fill:url(#m5_1_);" d="M9,68.3v4.02c1.71,0.26,3.1,1.05,5.23,1.27C13.01,72.24,10.47,70.1,9,68.3z"/>
	<linearGradient id="m4_1_" gradientUnits="userSpaceOnUse" x1="78.2786" y1="77.2457" x2="78.2786" y2="59.8803">
		<stop  offset="0.0581" style="stop-color:#451093"/>
		<stop  offset="0.2424" style="stop-color:#400F89"/>
		<stop  offset="0.6931" style="stop-color:#360D75"/>
		<stop  offset="1" style="stop-color:#330C6E"/>
	</linearGradient>
	<path id="m4" style="fill:url(#m4_1_);" d="M91,70.11c-2.29-1.59-4.32-3.61-7.79-6.27c2.35,8.83,0.83,0.74-6.26-0.84
		c-0.66-0.41-1.24-1.15-1.41-2.21c-0.24,1.26-2,2.07-2.58,3.64c-0.31-2.17-2.75-2.09-3.07-4.54c-3.01,1.83-0.25,5.64-4.33,6.15
		c5.97,7.2,2.23,2.32,10.48,6.49c3.05,1.43,4.88,3.78,9.03,4.72c1.97-0.12,3.74-0.83,5.93-1.22V70.11z"/>
	<linearGradient id="m3_1_" gradientUnits="userSpaceOnUse" x1="59.6188" y1="60.4865" x2="59.6188" y2="46.79">
		<stop  offset="0.0581" style="stop-color:#451093"/>
		<stop  offset="0.2424" style="stop-color:#400F89"/>
		<stop  offset="0.6931" style="stop-color:#360D75"/>
		<stop  offset="1" style="stop-color:#330C6E"/>
	</linearGradient>
	<path id="m3" style="fill:url(#m3_1_);" d="M61.09,49.39c-1.34-0.45-2.29-1.33-3.38-2.6c-1.02,4.55,1.04,9.68,3.87,13.7
		c-0.64-3.56-0.36-6.65,0.21-10.93C61.5,49.53,61.25,49.45,61.09,49.39z"/>
	<linearGradient id="m2_1_" gradientUnits="userSpaceOnUse" x1="19.3407" y1="46.3815" x2="19.3407" y2="41.0798">
		<stop  offset="0.0581" style="stop-color:#451093"/>
		<stop  offset="0.2424" style="stop-color:#400F89"/>
		<stop  offset="0.6931" style="stop-color:#360D75"/>
		<stop  offset="1" style="stop-color:#330C6E"/>
	</linearGradient>
	<path id="m2" style="fill:url(#m2_1_);" d="M15.66,44.28c-0.08,0.17-0.19,0.71-0.38,1.43c0.63-0.88,1.78-0.99,3.2-1.35
		c0.38,0.44,0.86,0.61,0.69,2.02c0.87-1.37,2.94-0.67,4.24-1.34c-1.79-1.03-3.22-2.44-5.23-3.96C17.6,41.81,16.08,41.87,15.66,44.28
		z"/>
	<linearGradient id="m1_1_" gradientUnits="userSpaceOnUse" x1="50.9246" y1="63.6217" x2="50.9246" y2="47.2861">
		<stop  offset="0.0581" style="stop-color:#451093"/>
		<stop  offset="0.2424" style="stop-color:#400F89"/>
		<stop  offset="0.6931" style="stop-color:#360D75"/>
		<stop  offset="1" style="stop-color:#330C6E"/>
	</linearGradient>
	<path id="m1" style="fill:url(#m1_1_);" d="M53.78,47.29c-3.02,2.23-7.85,3.6-12.69,5.11c0.21,0.44,0.59,0.95,0.63,1.44
		c2.01,1.97,2.77,4.44,1.39,7.69c11.52-3.38,1.6-5.26,17.64,2.1c-1.7-1.15-3.42-2.59-4.41-4.94C55.58,55.3,55.48,50.8,53.78,47.29z"
		/>
</g>
<linearGradient id="t_1_" gradientUnits="userSpaceOnUse" x1="38.7962" y1="18.3711" x2="38.7962" y2="67.6377">
	<stop  offset="0.0116" style="stop-color:#E6E6EA"/>
	<stop  offset="0.4933" style="stop-color:#DADADF"/>
	<stop  offset="1" style="stop-color:#D3D3D9"/>
</linearGradient>
<path id="t" style="fill:url(#t_1_);" d="M36.81,67.64H26.68l6.28-39.82H20.47l1.55-9.45h35.09l-1.55,9.45H43.08L36.81,67.64z"/>
<linearGradient id="d_1_" gradientUnits="userSpaceOnUse" x1="62.2045" y1="34.1173" x2="62.2045" y2="83.3839">
	<stop  offset="0.0116" style="stop-color:#E6E6EA"/>
	<stop  offset="0.4933" style="stop-color:#DADADF"/>
	<stop  offset="1" style="stop-color:#D3D3D9"/>
</linearGradient>
<path id="d" style="fill:url(#d_1_);" d="M42.94,83.38l7.83-49.27h16c4.54,0,8.13,1.17,10.76,3.51c2.63,2.34,3.95,5.49,3.95,9.45
	c0,0.86-0.07,1.8-0.2,2.84l-2.83,17.61c-0.5,3.15-1.64,5.92-3.44,8.3c-1.8,2.38-4.08,4.24-6.85,5.57c-2.77,1.33-5.84,1.99-9.21,1.99
	H42.94z M60.42,73.94c2.07,0,3.82-0.58,5.26-1.75c1.44-1.17,2.32-2.72,2.63-4.66l2.83-17.61c0.05-0.23,0.07-0.56,0.07-1.01
	c0-1.62-0.54-2.91-1.62-3.88c-1.08-0.97-2.54-1.45-4.39-1.45h-5.87l-4.79,30.37H60.42z"/>
</svg>
