<?xml version="1.0" encoding="utf-8"?>
<!-- Generator: Adobe Illustrator 24.0.0, SVG Export Plug-In . SVG Version: 6.00 Build 0)  -->
<svg version="1.1" id="icon" xmlns="http://www.w3.org/2000/svg" xmlns:xlink="http://www.w3.org/1999/xlink" x="0px" y="0px"
	 viewBox="0 0 100 100" style="enable-background:new 0 0 100 100;" xml:space="preserve">
<g id="back">
	<linearGradient id="SVGID_1_" gradientUnits="userSpaceOnUse" x1="50" y1="92" x2="50" y2="8">
		<stop  offset="0.1962" style="stop-color:#0D031C"/>
		<stop  offset="0.2304" style="stop-color:#18181B"/>
		<stop  offset="0.2436" style="stop-color:#772CE8"/>
		<stop  offset="0.2588" style="stop-color:#742BE2"/>
		<stop  offset="0.3839" style="stop-color:#5C20B5"/>
		<stop  offset="0.5098" style="stop-color:#481890"/>
		<stop  offset="0.6348" style="stop-color:#381173"/>
		<stop  offset="0.7588" style="stop-color:#2D0D5E"/>
		<stop  offset="0.8811" style="stop-color:#260A52"/>
		<stop  offset="1" style="stop-color:#24094E"/>
	</linearGradient>
	<rect x="8" y="8" style="fill:url(#SVGID_1_);" width="84" height="84"/>
	<path style="fill:#A970FF;" d="M91,9v82H9V9H91 M93,7h-2H9H7v2v82v2h2h82h2v-2V9V7L93,7z"/>
</g>
<g id="mountain">
	<linearGradient id="m8_1_" gradientUnits="userSpaceOnUse" x1="50" y1="86.8497" x2="50" y2="39.3425">
		<stop  offset="0.0581" style="stop-color:#15052E"/>
		<stop  offset="0.2424" style="stop-color:#100424"/>
		<stop  offset="0.6931" style="stop-color:#070210"/>
		<stop  offset="1" style="stop-color:#040109"/>
	</linearGradient>
	<path id="m8" style="fill:url(#m8_1_);" d="M90.75,61.71c-0.38-0.25-0.89-0.37-1.6-0.26c-5.64,0.93-7.45-1.17-12.11-3.88
		c-5.94-1.76-6.66-3.65-12.47-9.59c-4.09,0.16-2.94,0.54-7.78-3.45c-5.01,2.09-9.65,4.9-15.45,6.52c-4.49-1.48-4.39-2.89-8.23-7.2
		c-1.87-0.9-4.16-0.63-5.26-3.06c-0.97-0.62-1.71,2.06-3.47,3.08c-2.41-0.89-4.06-3.08-5.94-4.52c-4.04,1.51-5.05,7.77-9.19,7.39
		v32.56c0.4,0.18,0.8,0.35,1.22,0.51c3.69-0.09,5.22,1.68,8.32,2.79c29.46,6.7,14.88-4.5,28.96,3.27c2.62,0.74,4.52,1.17,7.5,0.9
		c13.43-5.44,10.36-3.68,22.59-5.54c4.47-2.13,8.35-3.38,12.91-4.13V61.71z"/>
	<linearGradient id="m7_1_" gradientUnits="userSpaceOnUse" x1="26.3425" y1="42.5632" x2="26.3425" y2="59.7295">
		<stop  offset="0.0581" style="stop-color:#451093"/>
		<stop  offset="0.2424" style="stop-color:#400F89"/>
		<stop  offset="0.6931" style="stop-color:#360D75"/>
		<stop  offset="1" style="stop-color:#330C6E"/>
	</linearGradient>
	<path id="m7" style="fill:url(#m7_1_);" d="M27.72,43.46c-4.67,2.65-0.2,3.14-5.11,4.86c-4.69,3.25-2.44,5.06-10.23,2.34
		c1.52,2.26,3.17,6.52,6.84,5.78c0.94-0.09,0.55,1.41,1.85,1.81c1.29-0.45,3.56-0.5,4.2,1.47c2.8-7.13,2.94-0.7,15.03-7.74
		c-3.21-1-5.27-3.45-7.57-6.91c-1.79-0.8-3.93-0.94-5.19-2.52C27.54,42.87,27.57,43.16,27.72,43.46z"/>
	<linearGradient id="m6_1_" gradientUnits="userSpaceOnUse" x1="20.2536" y1="51.1275" x2="20.2536" y2="69.5598">
		<stop  offset="0.0581" style="stop-color:#451093"/>
		<stop  offset="0.2424" style="stop-color:#400F89"/>
		<stop  offset="0.6931" style="stop-color:#360D75"/>
		<stop  offset="1" style="stop-color:#330C6E"/>
	</linearGradient>
	<path id="m6" style="fill:url(#m6_1_);" d="M9.25,51.13v16.99c3.04,0.05,6.29,0.89,9.85,1.44c3.43-2.38,7.81-3.01,12.16-1.26
		C24.26,60.9,15.28,63.54,9.25,51.13z"/>
	<linearGradient id="m5_1_" gradientUnits="userSpaceOnUse" x1="11.8488" y1="68.1051" x2="11.8488" y2="73.3619">
		<stop  offset="0.0581" style="stop-color:#451093"/>
		<stop  offset="0.2424" style="stop-color:#400F89"/>
		<stop  offset="0.6931" style="stop-color:#360D75"/>
		<stop  offset="1" style="stop-color:#330C6E"/>
	</linearGradient>
	<path id="m5" style="fill:url(#m5_1_);" d="M9.25,68.11v3.99c1.7,0.26,3.08,1.04,5.2,1.26C13.24,72.02,10.71,69.9,9.25,68.11z"/>
	<linearGradient id="m4_1_" gradientUnits="userSpaceOnUse" x1="78.1061" y1="59.7411" x2="78.1061" y2="77.0007">
		<stop  offset="0.0581" style="stop-color:#451093"/>
		<stop  offset="0.2424" style="stop-color:#400F89"/>
		<stop  offset="0.6931" style="stop-color:#360D75"/>
		<stop  offset="1" style="stop-color:#330C6E"/>
	</linearGradient>
	<path id="m4" style="fill:url(#m4_1_);" d="M90.75,69.91c-2.27-1.58-4.29-3.58-7.75-6.24c2.34,8.78,0.82,0.74-6.22-0.84
		c-0.66-0.41-1.23-1.15-1.4-2.2c-0.24,1.25-1.98,2.06-2.56,3.62c-0.3-2.16-2.74-2.08-3.05-4.52c-3,1.82-0.25,5.6-4.31,6.11
		c5.93,7.16,2.22,2.31,10.41,6.45c3.03,1.42,4.85,3.76,8.98,4.7c1.96-0.12,3.72-0.82,5.9-1.21V69.91z"/>
	<linearGradient id="m3_1_" gradientUnits="userSpaceOnUse" x1="59.5601" y1="46.7307" x2="59.5601" y2="60.3436">
		<stop  offset="0.0581" style="stop-color:#451093"/>
		<stop  offset="0.2424" style="stop-color:#400F89"/>
		<stop  offset="0.6931" style="stop-color:#360D75"/>
		<stop  offset="1" style="stop-color:#330C6E"/>
	</linearGradient>
	<path id="m3" style="fill:url(#m3_1_);" d="M61.02,49.31c-1.33-0.45-2.27-1.33-3.36-2.58c-1.02,4.52,1.04,9.62,3.85,13.61
		c-0.63-3.54-0.36-6.61,0.2-10.86C61.43,49.46,61.19,49.37,61.02,49.31z"/>
	<linearGradient id="m2_1_" gradientUnits="userSpaceOnUse" x1="19.5277" y1="41.0554" x2="19.5277" y2="46.3247">
		<stop  offset="0.0581" style="stop-color:#451093"/>
		<stop  offset="0.2424" style="stop-color:#400F89"/>
		<stop  offset="0.6931" style="stop-color:#360D75"/>
		<stop  offset="1" style="stop-color:#330C6E"/>
	</linearGradient>
	<path id="m2" style="fill:url(#m2_1_);" d="M15.87,44.24c-0.08,0.17-0.19,0.7-0.38,1.42c0.63-0.87,1.77-0.98,3.18-1.34
		c0.37,0.44,0.85,0.61,0.69,2.01c0.86-1.36,2.93-0.66,4.21-1.33c-1.78-1.02-3.21-2.42-5.2-3.94C17.8,41.78,16.28,41.84,15.87,44.24z
		"/>
	<linearGradient id="m1_1_" gradientUnits="userSpaceOnUse" x1="50.919" y1="47.2238" x2="50.919" y2="63.4598">
		<stop  offset="0.0581" style="stop-color:#451093"/>
		<stop  offset="0.2424" style="stop-color:#400F89"/>
		<stop  offset="0.6931" style="stop-color:#360D75"/>
		<stop  offset="1" style="stop-color:#330C6E"/>
	</linearGradient>
	<path id="m1" style="fill:url(#m1_1_);" d="M53.76,47.22c-3,2.22-7.8,3.58-12.61,5.07c0.21,0.43,0.59,0.95,0.63,1.43
		c2,1.96,2.75,4.41,1.38,7.65c11.45-3.36,1.59-5.23,17.53,2.09c-1.69-1.15-3.4-2.57-4.38-4.91C55.55,55.19,55.45,50.72,53.76,47.22z
		"/>
</g>
<linearGradient id="t_1_" gradientUnits="userSpaceOnUse" x1="38.7962" y1="17.3711" x2="38.7962" y2="66.6377">
	<stop  offset="0.0116" style="stop-color:#E6E6EA"/>
	<stop  offset="0.4933" style="stop-color:#DADADF"/>
	<stop  offset="1" style="stop-color:#D3D3D9"/>
</linearGradient>
<path id="t" style="fill:url(#t_1_);" d="M35.95,66.64h-8.1c-0.61,0-1.08-0.55-0.99-1.16l5.91-37.51c0.1-0.61-0.37-1.16-0.99-1.16
	H21.65c-0.62,0-1.09-0.55-0.99-1.16l1.22-7.45c0.08-0.48,0.5-0.84,0.99-0.84h33.07c0.62,0,1.09,0.55,0.99,1.16l-1.22,7.45
	c-0.08,0.48-0.5,0.84-0.99,0.84H43.94c-0.49,0-0.91,0.36-0.99,0.84l-6.01,38.13C36.86,66.28,36.44,66.64,35.95,66.64z"/>
<linearGradient id="d_1_" gradientUnits="userSpaceOnUse" x1="62.2901" y1="34.1173" x2="62.2901" y2="83.3839">
	<stop  offset="0.0116" style="stop-color:#E6E6EA"/>
	<stop  offset="0.4933" style="stop-color:#DADADF"/>
	<stop  offset="1" style="stop-color:#D3D3D9"/>
</linearGradient>
<path id="d" style="fill:url(#d_1_);" d="M43.12,82.23l7.51-47.27c0.08-0.49,0.5-0.84,0.99-0.84h15.14c4.54,0,8.13,1.17,10.76,3.51
	c2.63,2.34,3.95,5.49,3.95,9.45c0,0.86-0.07,1.8-0.2,2.84l-2.83,17.61c-0.5,3.15-1.64,5.92-3.44,8.3c-1.8,2.38-4.08,4.24-6.85,5.57
	c-2.77,1.33-5.84,1.99-9.21,1.99H44.11C43.49,83.38,43.02,82.83,43.12,82.23z M60.42,73.94c2.07,0,3.82-0.58,5.26-1.75
	c1.44-1.17,2.32-2.72,2.63-4.66l2.83-17.61c0.05-0.23,0.07-0.56,0.07-1.01c0-1.62-0.54-2.91-1.62-3.88
	c-1.08-0.97-2.54-1.45-4.39-1.45h-5.02c-0.49,0-0.91,0.36-0.99,0.84l-4.48,28.37c-0.1,0.61,0.37,1.16,0.99,1.16H60.42z"/>
</svg>
