<?xml version="1.0" encoding="utf-8"?>
<!-- Generator: Adobe Illustrator 24.0.0, SVG Export Plug-In . SVG Version: 6.00 Build 0)  -->
<svg version="1.1" xmlns="http://www.w3.org/2000/svg" xmlns:xlink="http://www.w3.org/1999/xlink" x="0px" y="0px" width="100px"
	 height="100px" viewBox="0 0 100 100" style="enable-background:new 0 0 100 100;" xml:space="preserve">
<g id="base">
	<linearGradient id="base_x5F_shape_1_" gradientUnits="userSpaceOnUse" x1="6.1655" y1="84.9683" x2="89.6489" y2="1.8448">
		<stop  offset="3.353635e-02" style="stop-color:#00D7B4"/>
		<stop  offset="0.4958" style="stop-color:#967AF6"/>
		<stop  offset="0.9504" style="stop-color:#9046FF"/>
	</linearGradient>
	<polygon id="base_x5F_shape" style="fill:url(#base_x5F_shape_1_);" points="41.1,4 4.2,40.8 4.2,88.4 26.4,88.4 26.4,99.1 
		36.9,88.4 49.1,88.4 95.8,40.9 95.8,4 	"/>
</g>
<g id="base_x5F_for_x5F_font">
	<polygon id="base_x5F_for_x5F_font_x5F_shape_1_" points="77.2,51.4 44.7,51.4 44.7,8.9 89.7,8.9 89.7,38.9 	"/>
</g>
<g id="text">
	<g id="text_2_">
		<path style="fill:#FFFFFF;" d="M57,32.2h-2.7V16.5h-4.8V14h12.4v2.5H57V32.2z"/>
		<path style="fill:#FFFFFF;" d="M65.2,32.2V14.1h5.1c1.2,0,2.2,0.2,3.1,0.7c0.9,0.5,1.6,1.1,2.1,1.9c0.5,0.8,0.7,1.8,0.7,2.9v7
			c0,1.1-0.2,2.1-0.7,3s-1.2,1.5-2.1,2c-0.9,0.5-1.9,0.7-3.1,0.7H65.2z M70.3,29.8c1,0,1.8-0.3,2.4-0.8c0.6-0.6,0.9-1.3,0.9-2.3v-7
			c0-1-0.3-1.7-0.9-2.3c-0.6-0.6-1.4-0.8-2.4-0.8h-2.4v13.3H70.3z"/>
	</g>
	<rect id="rect_x5F_shape_2_" x="50.1" y="43" style="fill:#FFFFFF;" width="19" height="2.4"/>
	<g>
	</g>
	<g>
	</g>
	<g>
	</g>
	<g>
	</g>
	<g>
	</g>
	<g>
	</g>
</g>
</svg>
